<svg xmlns="http://www.w3.org/2000/svg" width="1200" height="640" viewBox="0 0 1200 640">
<rect width="100%" height="100%" fill="#fff"/>
<style>text{font-family:-apple-system,BlinkMacSystemFont,Segoe UI,sans-serif;fill:#172033}.small{font-size:12px}.axis{stroke:#c8d0dc;stroke-width:1}.grid{stroke:#e8edf3;stroke-width:1}.title{font-size:26px;font-weight:700}.subtitle{font-size:14px;fill:#586174}.label{font-size:13px;fill:#586174}.tick{font-size:11px;fill:#6b7280}</style>
<text class="title" x="78" y="38">Curius user activity from /api/links/all?page=0</text>
<text class="subtitle" x="78" y="62">9,151 timestamped actions from 30 links: highlights + comments. Peak: 2023-07 with 924 actions.</text>
<line class="grid" x1="78" y1="522.0" x2="1164" y2="522.0"/>
<text class="tick" x="68" y="526.0" text-anchor="end">0</text>
<line class="grid" x1="78" y1="434.3" x2="1164" y2="434.3"/>
<text class="tick" x="68" y="438.3" text-anchor="end">185</text>
<line class="grid" x1="78" y1="346.6" x2="1164" y2="346.6"/>
<text class="tick" x="68" y="350.6" text-anchor="end">370</text>
<line class="grid" x1="78" y1="259.4" x2="1164" y2="259.4"/>
<text class="tick" x="68" y="263.4" text-anchor="end">554</text>
<line class="grid" x1="78" y1="171.7" x2="1164" y2="171.7"/>
<text class="tick" x="68" y="175.7" text-anchor="end">739</text>
<line class="grid" x1="78" y1="84.0" x2="1164" y2="84.0"/>
<text class="tick" x="68" y="88.0" text-anchor="end">924</text>
<line class="axis" x1="78" y1="522" x2="1164" y2="522"/>
<line class="axis" x1="78" y1="84" x2="78" y2="522"/>
<text class="label" x="20" y="303.0" transform="rotate(-90 20 303.0)" text-anchor="middle">actions / month</text>
<rect x="79.0" y="521.1" width="11.4" height="0.9" fill="#8ecae6"><title>2019-11: 2 actions (2 highlights, 0 comments), 1 users</title></rect>
<rect x="172.9" y="519.6" width="11.4" height="2.4" fill="#8ecae6"><title>2020-06: 5 actions (5 highlights, 0 comments), 1 users</title></rect>
<rect x="186.3" y="520.1" width="11.4" height="1.9" fill="#8ecae6"><title>2020-07: 4 actions (4 highlights, 0 comments), 2 users</title></rect>
<rect x="253.3" y="521.5" width="11.4" height="0.5" fill="#8ecae6"><title>2020-12: 1 actions (1 highlights, 0 comments), 1 users</title></rect>
<rect x="280.1" y="473.2" width="11.4" height="48.8" fill="#8ecae6"><title>2021-02: 103 actions (61 highlights, 42 comments), 49 users</title></rect>
<rect x="280.1" y="502.1" width="11.4" height="19.9" fill="#fb8500"><title>2021-02 comments: 42</title></rect>
<rect x="293.5" y="502.1" width="11.4" height="19.9" fill="#8ecae6"><title>2021-03: 42 actions (23 highlights, 19 comments), 23 users</title></rect>
<rect x="293.5" y="513.0" width="11.4" height="9.0" fill="#fb8500"><title>2021-03 comments: 19</title></rect>
<rect x="306.9" y="509.7" width="11.4" height="12.3" fill="#8ecae6"><title>2021-04: 26 actions (15 highlights, 11 comments), 15 users</title></rect>
<rect x="306.9" y="516.8" width="11.4" height="5.2" fill="#fb8500"><title>2021-04 comments: 11</title></rect>
<rect x="320.3" y="508.3" width="11.4" height="13.7" fill="#8ecae6"><title>2021-05: 29 actions (16 highlights, 13 comments), 15 users</title></rect>
<rect x="320.3" y="515.8" width="11.4" height="6.2" fill="#fb8500"><title>2021-05 comments: 13</title></rect>
<rect x="333.7" y="502.6" width="11.4" height="19.4" fill="#8ecae6"><title>2021-06: 41 actions (26 highlights, 15 comments), 26 users</title></rect>
<rect x="333.7" y="514.9" width="11.4" height="7.1" fill="#fb8500"><title>2021-06 comments: 15</title></rect>
<rect x="347.1" y="516.8" width="11.4" height="5.2" fill="#8ecae6"><title>2021-07: 11 actions (11 highlights, 0 comments), 9 users</title></rect>
<rect x="360.6" y="510.6" width="11.4" height="11.4" fill="#8ecae6"><title>2021-08: 24 actions (23 highlights, 1 comments), 16 users</title></rect>
<rect x="360.6" y="521.5" width="11.4" height="0.5" fill="#fb8500"><title>2021-08 comments: 1</title></rect>
<rect x="374.0" y="517.3" width="11.4" height="4.7" fill="#8ecae6"><title>2021-09: 10 actions (10 highlights, 0 comments), 10 users</title></rect>
<rect x="387.4" y="508.3" width="11.4" height="13.7" fill="#8ecae6"><title>2021-10: 29 actions (26 highlights, 3 comments), 18 users</title></rect>
<rect x="387.4" y="520.6" width="11.4" height="1.4" fill="#fb8500"><title>2021-10 comments: 3</title></rect>
<rect x="400.8" y="514.9" width="11.4" height="7.1" fill="#8ecae6"><title>2021-11: 15 actions (15 highlights, 0 comments), 12 users</title></rect>
<rect x="414.2" y="517.7" width="11.4" height="4.3" fill="#8ecae6"><title>2021-12: 9 actions (8 highlights, 1 comments), 8 users</title></rect>
<rect x="414.2" y="521.5" width="11.4" height="0.5" fill="#fb8500"><title>2021-12 comments: 1</title></rect>
<rect x="427.6" y="497.4" width="11.4" height="24.6" fill="#8ecae6"><title>2022-01: 52 actions (39 highlights, 13 comments), 15 users</title></rect>
<rect x="427.6" y="515.8" width="11.4" height="6.2" fill="#fb8500"><title>2022-01 comments: 13</title></rect>
<rect x="441.0" y="509.7" width="11.4" height="12.3" fill="#8ecae6"><title>2022-02: 26 actions (21 highlights, 5 comments), 14 users</title></rect>
<rect x="441.0" y="519.6" width="11.4" height="2.4" fill="#fb8500"><title>2022-02 comments: 5</title></rect>
<rect x="454.4" y="493.6" width="11.4" height="28.4" fill="#8ecae6"><title>2022-03: 60 actions (52 highlights, 8 comments), 38 users</title></rect>
<rect x="454.4" y="518.2" width="11.4" height="3.8" fill="#fb8500"><title>2022-03 comments: 8</title></rect>
<rect x="467.8" y="482.2" width="11.4" height="39.8" fill="#8ecae6"><title>2022-04: 84 actions (76 highlights, 8 comments), 27 users</title></rect>
<rect x="467.8" y="518.2" width="11.4" height="3.8" fill="#fb8500"><title>2022-04 comments: 8</title></rect>
<rect x="481.2" y="504.5" width="11.4" height="17.5" fill="#8ecae6"><title>2022-05: 37 actions (34 highlights, 3 comments), 25 users</title></rect>
<rect x="481.2" y="520.6" width="11.4" height="1.4" fill="#fb8500"><title>2022-05 comments: 3</title></rect>
<rect x="494.6" y="508.3" width="11.4" height="13.7" fill="#8ecae6"><title>2022-06: 29 actions (28 highlights, 1 comments), 21 users</title></rect>
<rect x="494.6" y="521.5" width="11.4" height="0.5" fill="#fb8500"><title>2022-06 comments: 1</title></rect>
<rect x="508.0" y="478.9" width="11.4" height="43.1" fill="#8ecae6"><title>2022-07: 91 actions (81 highlights, 10 comments), 49 users</title></rect>
<rect x="508.0" y="517.3" width="11.4" height="4.7" fill="#fb8500"><title>2022-07 comments: 10</title></rect>
<rect x="521.4" y="481.2" width="11.4" height="40.8" fill="#8ecae6"><title>2022-08: 86 actions (83 highlights, 3 comments), 42 users</title></rect>
<rect x="521.4" y="520.6" width="11.4" height="1.4" fill="#fb8500"><title>2022-08 comments: 3</title></rect>
<rect x="534.9" y="470.3" width="11.4" height="51.7" fill="#8ecae6"><title>2022-09: 109 actions (104 highlights, 5 comments), 31 users</title></rect>
<rect x="534.9" y="519.6" width="11.4" height="2.4" fill="#fb8500"><title>2022-09 comments: 5</title></rect>
<rect x="548.3" y="490.2" width="11.4" height="31.8" fill="#8ecae6"><title>2022-10: 67 actions (62 highlights, 5 comments), 36 users</title></rect>
<rect x="548.3" y="519.6" width="11.4" height="2.4" fill="#fb8500"><title>2022-10 comments: 5</title></rect>
<rect x="561.7" y="436.7" width="11.4" height="85.3" fill="#8ecae6"><title>2022-11: 180 actions (152 highlights, 28 comments), 48 users</title></rect>
<rect x="561.7" y="508.7" width="11.4" height="13.3" fill="#fb8500"><title>2022-11 comments: 28</title></rect>
<rect x="575.1" y="460.4" width="11.4" height="61.6" fill="#8ecae6"><title>2022-12: 130 actions (125 highlights, 5 comments), 33 users</title></rect>
<rect x="575.1" y="519.6" width="11.4" height="2.4" fill="#fb8500"><title>2022-12 comments: 5</title></rect>
<rect x="588.5" y="406.8" width="11.4" height="115.2" fill="#8ecae6"><title>2023-01: 243 actions (196 highlights, 47 comments), 85 users</title></rect>
<rect x="588.5" y="499.7" width="11.4" height="22.3" fill="#fb8500"><title>2023-01 comments: 47</title></rect>
<rect x="601.9" y="477.4" width="11.4" height="44.6" fill="#8ecae6"><title>2023-02: 94 actions (82 highlights, 12 comments), 46 users</title></rect>
<rect x="601.9" y="516.3" width="11.4" height="5.7" fill="#fb8500"><title>2023-02 comments: 12</title></rect>
<rect x="615.3" y="480.3" width="11.4" height="41.7" fill="#8ecae6"><title>2023-03: 88 actions (75 highlights, 13 comments), 43 users</title></rect>
<rect x="615.3" y="515.8" width="11.4" height="6.2" fill="#fb8500"><title>2023-03 comments: 13</title></rect>
<rect x="628.7" y="451.8" width="11.4" height="70.2" fill="#8ecae6"><title>2023-04: 148 actions (144 highlights, 4 comments), 44 users</title></rect>
<rect x="628.7" y="520.1" width="11.4" height="1.9" fill="#fb8500"><title>2023-04 comments: 4</title></rect>
<rect x="642.1" y="462.3" width="11.4" height="59.7" fill="#8ecae6"><title>2023-05: 126 actions (108 highlights, 18 comments), 49 users</title></rect>
<rect x="642.1" y="513.5" width="11.4" height="8.5" fill="#fb8500"><title>2023-05 comments: 18</title></rect>
<rect x="655.5" y="479.3" width="11.4" height="42.7" fill="#8ecae6"><title>2023-06: 90 actions (79 highlights, 11 comments), 37 users</title></rect>
<rect x="655.5" y="516.8" width="11.4" height="5.2" fill="#fb8500"><title>2023-06 comments: 11</title></rect>
<rect x="668.9" y="84.0" width="11.4" height="438.0" fill="#8ecae6"><title>2023-07: 924 actions (823 highlights, 101 comments), 70 users</title></rect>
<rect x="668.9" y="474.1" width="11.4" height="47.9" fill="#fb8500"><title>2023-07 comments: 101</title></rect>
<rect x="682.3" y="337.6" width="11.4" height="184.4" fill="#8ecae6"><title>2023-08: 389 actions (340 highlights, 49 comments), 122 users</title></rect>
<rect x="682.3" y="498.8" width="11.4" height="23.2" fill="#fb8500"><title>2023-08 comments: 49</title></rect>
<rect x="695.7" y="397.3" width="11.4" height="124.7" fill="#8ecae6"><title>2023-09: 263 actions (207 highlights, 56 comments), 60 users</title></rect>
<rect x="695.7" y="495.5" width="11.4" height="26.5" fill="#fb8500"><title>2023-09 comments: 56</title></rect>
<rect x="709.1" y="445.7" width="11.4" height="76.3" fill="#8ecae6"><title>2023-10: 161 actions (136 highlights, 25 comments), 55 users</title></rect>
<rect x="709.1" y="510.1" width="11.4" height="11.9" fill="#fb8500"><title>2023-10 comments: 25</title></rect>
<rect x="722.6" y="441.9" width="11.4" height="80.1" fill="#8ecae6"><title>2023-11: 169 actions (157 highlights, 12 comments), 52 users</title></rect>
<rect x="722.6" y="516.3" width="11.4" height="5.7" fill="#fb8500"><title>2023-11 comments: 12</title></rect>
<rect x="736.0" y="358.9" width="11.4" height="163.1" fill="#8ecae6"><title>2023-12: 344 actions (306 highlights, 38 comments), 76 users</title></rect>
<rect x="736.0" y="504.0" width="11.4" height="18.0" fill="#fb8500"><title>2023-12 comments: 38</title></rect>
<rect x="749.4" y="347.1" width="11.4" height="174.9" fill="#8ecae6"><title>2024-01: 369 actions (344 highlights, 25 comments), 69 users</title></rect>
<rect x="749.4" y="510.1" width="11.4" height="11.9" fill="#fb8500"><title>2024-01 comments: 25</title></rect>
<rect x="762.8" y="437.6" width="11.4" height="84.4" fill="#8ecae6"><title>2024-02: 178 actions (166 highlights, 12 comments), 50 users</title></rect>
<rect x="762.8" y="516.3" width="11.4" height="5.7" fill="#fb8500"><title>2024-02 comments: 12</title></rect>
<rect x="776.2" y="419.1" width="11.4" height="102.9" fill="#8ecae6"><title>2024-03: 217 actions (201 highlights, 16 comments), 60 users</title></rect>
<rect x="776.2" y="514.4" width="11.4" height="7.6" fill="#fb8500"><title>2024-03 comments: 16</title></rect>
<rect x="789.6" y="438.6" width="11.4" height="83.4" fill="#8ecae6"><title>2024-04: 176 actions (166 highlights, 10 comments), 61 users</title></rect>
<rect x="789.6" y="517.3" width="11.4" height="4.7" fill="#fb8500"><title>2024-04 comments: 10</title></rect>
<rect x="803.0" y="434.8" width="11.4" height="87.2" fill="#8ecae6"><title>2024-05: 184 actions (162 highlights, 22 comments), 54 users</title></rect>
<rect x="803.0" y="511.6" width="11.4" height="10.4" fill="#fb8500"><title>2024-05 comments: 22</title></rect>
<rect x="816.4" y="426.2" width="11.4" height="95.8" fill="#8ecae6"><title>2024-06: 202 actions (178 highlights, 24 comments), 59 users</title></rect>
<rect x="816.4" y="510.6" width="11.4" height="11.4" fill="#fb8500"><title>2024-06 comments: 24</title></rect>
<rect x="829.8" y="469.4" width="11.4" height="52.6" fill="#8ecae6"><title>2024-07: 111 actions (107 highlights, 4 comments), 50 users</title></rect>
<rect x="829.8" y="520.1" width="11.4" height="1.9" fill="#fb8500"><title>2024-07 comments: 4</title></rect>
<rect x="843.2" y="473.6" width="11.4" height="48.4" fill="#8ecae6"><title>2024-08: 102 actions (91 highlights, 11 comments), 46 users</title></rect>
<rect x="843.2" y="516.8" width="11.4" height="5.2" fill="#fb8500"><title>2024-08 comments: 11</title></rect>
<rect x="856.6" y="415.3" width="11.4" height="106.7" fill="#8ecae6"><title>2024-09: 225 actions (217 highlights, 8 comments), 50 users</title></rect>
<rect x="856.6" y="518.2" width="11.4" height="3.8" fill="#fb8500"><title>2024-09 comments: 8</title></rect>
<rect x="870.0" y="468.0" width="11.4" height="54.0" fill="#8ecae6"><title>2024-10: 114 actions (107 highlights, 7 comments), 47 users</title></rect>
<rect x="870.0" y="518.7" width="11.4" height="3.3" fill="#fb8500"><title>2024-10 comments: 7</title></rect>
<rect x="883.4" y="401.6" width="11.4" height="120.4" fill="#8ecae6"><title>2024-11: 254 actions (245 highlights, 9 comments), 44 users</title></rect>
<rect x="883.4" y="517.7" width="11.4" height="4.3" fill="#fb8500"><title>2024-11 comments: 9</title></rect>
<rect x="896.9" y="478.4" width="11.4" height="43.6" fill="#8ecae6"><title>2024-12: 92 actions (91 highlights, 1 comments), 31 users</title></rect>
<rect x="896.9" y="521.5" width="11.4" height="0.5" fill="#fb8500"><title>2024-12 comments: 1</title></rect>
<rect x="910.3" y="444.7" width="11.4" height="77.3" fill="#8ecae6"><title>2025-01: 163 actions (154 highlights, 9 comments), 49 users</title></rect>
<rect x="910.3" y="517.7" width="11.4" height="4.3" fill="#fb8500"><title>2025-01 comments: 9</title></rect>
<rect x="923.7" y="451.4" width="11.4" height="70.6" fill="#8ecae6"><title>2025-02: 149 actions (141 highlights, 8 comments), 41 users</title></rect>
<rect x="923.7" y="518.2" width="11.4" height="3.8" fill="#fb8500"><title>2025-02 comments: 8</title></rect>
<rect x="937.1" y="486.4" width="11.4" height="35.6" fill="#8ecae6"><title>2025-03: 75 actions (69 highlights, 6 comments), 39 users</title></rect>
<rect x="937.1" y="519.2" width="11.4" height="2.8" fill="#fb8500"><title>2025-03 comments: 6</title></rect>
<rect x="950.5" y="431.5" width="11.4" height="90.5" fill="#8ecae6"><title>2025-04: 191 actions (187 highlights, 4 comments), 45 users</title></rect>
<rect x="950.5" y="520.1" width="11.4" height="1.9" fill="#fb8500"><title>2025-04 comments: 4</title></rect>
<rect x="963.9" y="498.3" width="11.4" height="23.7" fill="#8ecae6"><title>2025-05: 50 actions (47 highlights, 3 comments), 26 users</title></rect>
<rect x="963.9" y="520.6" width="11.4" height="1.4" fill="#fb8500"><title>2025-05 comments: 3</title></rect>
<rect x="977.3" y="459.4" width="11.4" height="62.6" fill="#8ecae6"><title>2025-06: 132 actions (126 highlights, 6 comments), 40 users</title></rect>
<rect x="977.3" y="519.2" width="11.4" height="2.8" fill="#fb8500"><title>2025-06 comments: 6</title></rect>
<rect x="990.7" y="483.6" width="11.4" height="38.4" fill="#8ecae6"><title>2025-07: 81 actions (71 highlights, 10 comments), 34 users</title></rect>
<rect x="990.7" y="517.3" width="11.4" height="4.7" fill="#fb8500"><title>2025-07 comments: 10</title></rect>
<rect x="1004.1" y="493.1" width="11.4" height="28.9" fill="#8ecae6"><title>2025-08: 61 actions (52 highlights, 9 comments), 28 users</title></rect>
<rect x="1004.1" y="517.7" width="11.4" height="4.3" fill="#fb8500"><title>2025-08 comments: 9</title></rect>
<rect x="1017.5" y="492.1" width="11.4" height="29.9" fill="#8ecae6"><title>2025-09: 63 actions (62 highlights, 1 comments), 33 users</title></rect>
<rect x="1017.5" y="521.5" width="11.4" height="0.5" fill="#fb8500"><title>2025-09 comments: 1</title></rect>
<rect x="1030.9" y="488.8" width="11.4" height="33.2" fill="#8ecae6"><title>2025-10: 70 actions (63 highlights, 7 comments), 53 users</title></rect>
<rect x="1030.9" y="518.7" width="11.4" height="3.3" fill="#fb8500"><title>2025-10 comments: 7</title></rect>
<rect x="1044.3" y="447.1" width="11.4" height="74.9" fill="#8ecae6"><title>2025-11: 158 actions (149 highlights, 9 comments), 43 users</title></rect>
<rect x="1044.3" y="517.7" width="11.4" height="4.3" fill="#fb8500"><title>2025-11 comments: 9</title></rect>
<rect x="1057.7" y="485.0" width="11.4" height="37.0" fill="#8ecae6"><title>2025-12: 78 actions (76 highlights, 2 comments), 47 users</title></rect>
<rect x="1057.7" y="521.1" width="11.4" height="0.9" fill="#fb8500"><title>2025-12 comments: 2</title></rect>
<rect x="1071.1" y="366.0" width="11.4" height="156.0" fill="#8ecae6"><title>2026-01: 329 actions (307 highlights, 22 comments), 66 users</title></rect>
<rect x="1071.1" y="511.6" width="11.4" height="10.4" fill="#fb8500"><title>2026-01 comments: 22</title></rect>
<rect x="1084.6" y="412.0" width="11.4" height="110.0" fill="#8ecae6"><title>2026-02: 232 actions (202 highlights, 30 comments), 71 users</title></rect>
<rect x="1084.6" y="507.8" width="11.4" height="14.2" fill="#fb8500"><title>2026-02 comments: 30</title></rect>
<rect x="1098.0" y="459.4" width="11.4" height="62.6" fill="#8ecae6"><title>2026-03: 132 actions (111 highlights, 21 comments), 68 users</title></rect>
<rect x="1098.0" y="512.0" width="11.4" height="10.0" fill="#fb8500"><title>2026-03 comments: 21</title></rect>
<rect x="1111.4" y="435.7" width="11.4" height="86.3" fill="#8ecae6"><title>2026-04: 182 actions (160 highlights, 22 comments), 54 users</title></rect>
<rect x="1111.4" y="511.6" width="11.4" height="10.4" fill="#fb8500"><title>2026-04 comments: 22</title></rect>
<rect x="1124.8" y="487.9" width="11.4" height="34.1" fill="#8ecae6"><title>2026-05: 72 actions (68 highlights, 4 comments), 41 users</title></rect>
<rect x="1124.8" y="520.1" width="11.4" height="1.9" fill="#fb8500"><title>2026-05 comments: 4</title></rect>
<rect x="1138.2" y="401.1" width="11.4" height="120.9" fill="#8ecae6"><title>2026-06: 255 actions (223 highlights, 32 comments), 55 users</title></rect>
<rect x="1138.2" y="506.8" width="11.4" height="15.2" fill="#fb8500"><title>2026-06 comments: 32</title></rect>
<rect x="1151.6" y="468.4" width="11.4" height="53.6" fill="#8ecae6"><title>2026-07: 113 actions (108 highlights, 5 comments), 35 users</title></rect>
<rect x="1151.6" y="519.6" width="11.4" height="2.4" fill="#fb8500"><title>2026-07 comments: 5</title></rect>
<polyline points="83.7,518.4 97.1,522.0 110.5,522.0 123.9,522.0 137.3,522.0 150.7,522.0 164.1,522.0 177.6,518.4 191.0,514.8 204.4,522.0 217.8,522.0 231.2,522.0 244.6,522.0 258.0,518.4 271.4,522.0 284.8,346.1 298.2,439.4 311.6,468.1 325.0,468.1 338.4,428.7 351.9,489.7 365.3,464.6 378.7,486.1 392.1,457.4 405.5,478.9 418.9,493.3 432.3,468.1 445.7,471.7 459.1,385.6 472.5,425.1 485.9,432.2 499.3,446.6 512.7,346.1 526.1,371.2 539.6,410.7 553.0,392.8 566.4,349.7 579.8,403.5 593.2,216.8 606.6,356.9 620.0,367.6 633.4,364.0 646.8,346.1 660.2,389.2 673.6,270.7 687.0,84.0 700.4,306.6 713.9,324.5 727.3,335.3 740.7,249.1 754.1,274.3 767.5,342.5 780.9,306.6 794.3,303.0 807.7,328.1 821.1,310.2 834.5,342.5 847.9,356.9 861.3,342.5 874.7,353.3 888.1,364.0 901.6,410.7 915.0,346.1 928.4,374.8 941.8,382.0 955.2,360.4 968.6,428.7 982.0,378.4 995.4,399.9 1008.8,421.5 1022.2,403.5 1035.6,331.7 1049.0,367.6 1062.4,353.3 1075.9,285.0 1089.3,267.1 1102.7,277.9 1116.1,328.1 1129.5,374.8 1142.9,324.5 1156.3,396.3" fill="none" stroke="#023047" stroke-width="2.5" opacity="0.85"><title>Unique active users/month, scaled to chart height</title></polyline>
<circle cx="83.7" cy="518.4" r="2.6" fill="#023047"><title>2019-11: 1 unique active users</title></circle>
<circle cx="177.6" cy="518.4" r="2.6" fill="#023047"><title>2020-06: 1 unique active users</title></circle>
<circle cx="191.0" cy="514.8" r="2.6" fill="#023047"><title>2020-07: 2 unique active users</title></circle>
<circle cx="258.0" cy="518.4" r="2.6" fill="#023047"><title>2020-12: 1 unique active users</title></circle>
<circle cx="284.8" cy="346.1" r="2.6" fill="#023047"><title>2021-02: 49 unique active users</title></circle>
<circle cx="298.2" cy="439.4" r="2.6" fill="#023047"><title>2021-03: 23 unique active users</title></circle>
<circle cx="311.6" cy="468.1" r="2.6" fill="#023047"><title>2021-04: 15 unique active users</title></circle>
<circle cx="325.0" cy="468.1" r="2.6" fill="#023047"><title>2021-05: 15 unique active users</title></circle>
<circle cx="338.4" cy="428.7" r="2.6" fill="#023047"><title>2021-06: 26 unique active users</title></circle>
<circle cx="351.9" cy="489.7" r="2.6" fill="#023047"><title>2021-07: 9 unique active users</title></circle>
<circle cx="365.3" cy="464.6" r="2.6" fill="#023047"><title>2021-08: 16 unique active users</title></circle>
<circle cx="378.7" cy="486.1" r="2.6" fill="#023047"><title>2021-09: 10 unique active users</title></circle>
<circle cx="392.1" cy="457.4" r="2.6" fill="#023047"><title>2021-10: 18 unique active users</title></circle>
<circle cx="405.5" cy="478.9" r="2.6" fill="#023047"><title>2021-11: 12 unique active users</title></circle>
<circle cx="418.9" cy="493.3" r="2.6" fill="#023047"><title>2021-12: 8 unique active users</title></circle>
<circle cx="432.3" cy="468.1" r="2.6" fill="#023047"><title>2022-01: 15 unique active users</title></circle>
<circle cx="445.7" cy="471.7" r="2.6" fill="#023047"><title>2022-02: 14 unique active users</title></circle>
<circle cx="459.1" cy="385.6" r="2.6" fill="#023047"><title>2022-03: 38 unique active users</title></circle>
<circle cx="472.5" cy="425.1" r="2.6" fill="#023047"><title>2022-04: 27 unique active users</title></circle>
<circle cx="485.9" cy="432.2" r="2.6" fill="#023047"><title>2022-05: 25 unique active users</title></circle>
<circle cx="499.3" cy="446.6" r="2.6" fill="#023047"><title>2022-06: 21 unique active users</title></circle>
<circle cx="512.7" cy="346.1" r="2.6" fill="#023047"><title>2022-07: 49 unique active users</title></circle>
<circle cx="526.1" cy="371.2" r="2.6" fill="#023047"><title>2022-08: 42 unique active users</title></circle>
<circle cx="539.6" cy="410.7" r="2.6" fill="#023047"><title>2022-09: 31 unique active users</title></circle>
<circle cx="553.0" cy="392.8" r="2.6" fill="#023047"><title>2022-10: 36 unique active users</title></circle>
<circle cx="566.4" cy="349.7" r="2.6" fill="#023047"><title>2022-11: 48 unique active users</title></circle>
<circle cx="579.8" cy="403.5" r="2.6" fill="#023047"><title>2022-12: 33 unique active users</title></circle>
<circle cx="593.2" cy="216.8" r="2.6" fill="#023047"><title>2023-01: 85 unique active users</title></circle>
<circle cx="606.6" cy="356.9" r="2.6" fill="#023047"><title>2023-02: 46 unique active users</title></circle>
<circle cx="620.0" cy="367.6" r="2.6" fill="#023047"><title>2023-03: 43 unique active users</title></circle>
<circle cx="633.4" cy="364.0" r="2.6" fill="#023047"><title>2023-04: 44 unique active users</title></circle>
<circle cx="646.8" cy="346.1" r="2.6" fill="#023047"><title>2023-05: 49 unique active users</title></circle>
<circle cx="660.2" cy="389.2" r="2.6" fill="#023047"><title>2023-06: 37 unique active users</title></circle>
<circle cx="673.6" cy="270.7" r="2.6" fill="#023047"><title>2023-07: 70 unique active users</title></circle>
<circle cx="687.0" cy="84.0" r="2.6" fill="#023047"><title>2023-08: 122 unique active users</title></circle>
<circle cx="700.4" cy="306.6" r="2.6" fill="#023047"><title>2023-09: 60 unique active users</title></circle>
<circle cx="713.9" cy="324.5" r="2.6" fill="#023047"><title>2023-10: 55 unique active users</title></circle>
<circle cx="727.3" cy="335.3" r="2.6" fill="#023047"><title>2023-11: 52 unique active users</title></circle>
<circle cx="740.7" cy="249.1" r="2.6" fill="#023047"><title>2023-12: 76 unique active users</title></circle>
<circle cx="754.1" cy="274.3" r="2.6" fill="#023047"><title>2024-01: 69 unique active users</title></circle>
<circle cx="767.5" cy="342.5" r="2.6" fill="#023047"><title>2024-02: 50 unique active users</title></circle>
<circle cx="780.9" cy="306.6" r="2.6" fill="#023047"><title>2024-03: 60 unique active users</title></circle>
<circle cx="794.3" cy="303.0" r="2.6" fill="#023047"><title>2024-04: 61 unique active users</title></circle>
<circle cx="807.7" cy="328.1" r="2.6" fill="#023047"><title>2024-05: 54 unique active users</title></circle>
<circle cx="821.1" cy="310.2" r="2.6" fill="#023047"><title>2024-06: 59 unique active users</title></circle>
<circle cx="834.5" cy="342.5" r="2.6" fill="#023047"><title>2024-07: 50 unique active users</title></circle>
<circle cx="847.9" cy="356.9" r="2.6" fill="#023047"><title>2024-08: 46 unique active users</title></circle>
<circle cx="861.3" cy="342.5" r="2.6" fill="#023047"><title>2024-09: 50 unique active users</title></circle>
<circle cx="874.7" cy="353.3" r="2.6" fill="#023047"><title>2024-10: 47 unique active users</title></circle>
<circle cx="888.1" cy="364.0" r="2.6" fill="#023047"><title>2024-11: 44 unique active users</title></circle>
<circle cx="901.6" cy="410.7" r="2.6" fill="#023047"><title>2024-12: 31 unique active users</title></circle>
<circle cx="915.0" cy="346.1" r="2.6" fill="#023047"><title>2025-01: 49 unique active users</title></circle>
<circle cx="928.4" cy="374.8" r="2.6" fill="#023047"><title>2025-02: 41 unique active users</title></circle>
<circle cx="941.8" cy="382.0" r="2.6" fill="#023047"><title>2025-03: 39 unique active users</title></circle>
<circle cx="955.2" cy="360.4" r="2.6" fill="#023047"><title>2025-04: 45 unique active users</title></circle>
<circle cx="968.6" cy="428.7" r="2.6" fill="#023047"><title>2025-05: 26 unique active users</title></circle>
<circle cx="982.0" cy="378.4" r="2.6" fill="#023047"><title>2025-06: 40 unique active users</title></circle>
<circle cx="995.4" cy="399.9" r="2.6" fill="#023047"><title>2025-07: 34 unique active users</title></circle>
<circle cx="1008.8" cy="421.5" r="2.6" fill="#023047"><title>2025-08: 28 unique active users</title></circle>
<circle cx="1022.2" cy="403.5" r="2.6" fill="#023047"><title>2025-09: 33 unique active users</title></circle>
<circle cx="1035.6" cy="331.7" r="2.6" fill="#023047"><title>2025-10: 53 unique active users</title></circle>
<circle cx="1049.0" cy="367.6" r="2.6" fill="#023047"><title>2025-11: 43 unique active users</title></circle>
<circle cx="1062.4" cy="353.3" r="2.6" fill="#023047"><title>2025-12: 47 unique active users</title></circle>
<circle cx="1075.9" cy="285.0" r="2.6" fill="#023047"><title>2026-01: 66 unique active users</title></circle>
<circle cx="1089.3" cy="267.1" r="2.6" fill="#023047"><title>2026-02: 71 unique active users</title></circle>
<circle cx="1102.7" cy="277.9" r="2.6" fill="#023047"><title>2026-03: 68 unique active users</title></circle>
<circle cx="1116.1" cy="328.1" r="2.6" fill="#023047"><title>2026-04: 54 unique active users</title></circle>
<circle cx="1129.5" cy="374.8" r="2.6" fill="#023047"><title>2026-05: 41 unique active users</title></circle>
<circle cx="1142.9" cy="324.5" r="2.6" fill="#023047"><title>2026-06: 55 unique active users</title></circle>
<circle cx="1156.3" cy="396.3" r="2.6" fill="#023047"><title>2026-07: 35 unique active users</title></circle>
<text class="tick" x="83.7" y="544" text-anchor="middle" transform="rotate(45 83.7 544)">2019-11</text>
<text class="tick" x="164.1" y="544" text-anchor="middle" transform="rotate(45 164.1 544)">2020-05</text>
<text class="tick" x="244.6" y="544" text-anchor="middle" transform="rotate(45 244.6 544)">2020-11</text>
<text class="tick" x="325.0" y="544" text-anchor="middle" transform="rotate(45 325.0 544)">2021-05</text>
<text class="tick" x="405.5" y="544" text-anchor="middle" transform="rotate(45 405.5 544)">2021-11</text>
<text class="tick" x="485.9" y="544" text-anchor="middle" transform="rotate(45 485.9 544)">2022-05</text>
<text class="tick" x="566.4" y="544" text-anchor="middle" transform="rotate(45 566.4 544)">2022-11</text>
<text class="tick" x="646.8" y="544" text-anchor="middle" transform="rotate(45 646.8 544)">2023-05</text>
<text class="tick" x="727.3" y="544" text-anchor="middle" transform="rotate(45 727.3 544)">2023-11</text>
<text class="tick" x="807.7" y="544" text-anchor="middle" transform="rotate(45 807.7 544)">2024-05</text>
<text class="tick" x="888.1" y="544" text-anchor="middle" transform="rotate(45 888.1 544)">2024-11</text>
<text class="tick" x="968.6" y="544" text-anchor="middle" transform="rotate(45 968.6 544)">2025-05</text>
<text class="tick" x="1049.0" y="544" text-anchor="middle" transform="rotate(45 1049.0 544)">2025-11</text>
<text class="tick" x="1129.5" y="544" text-anchor="middle" transform="rotate(45 1129.5 544)">2026-05</text>
<text class="tick" x="1156.3" y="544" text-anchor="middle" transform="rotate(45 1156.3 544)">2026-07</text>
<line x1="673.6" y1="76.0" x2="673.6" y2="522" stroke="#d62828" stroke-width="1.5" stroke-dasharray="4 4"/>
<text class="label" x="681.6" y="96.0" fill="#d62828">Peak 2023-07: 924 actions</text>
<rect x="78" y="597" width="12" height="12" fill="#8ecae6"/><text class="small" x="96" y="607">highlights</text>
<rect x="190" y="597" width="12" height="12" fill="#fb8500"/><text class="small" x="208" y="607">comments</text>
<line x1="292" y1="603" x2="330" y2="603" stroke="#023047" stroke-width="2.5"/><text class="small" x="338" y="607">unique active users (scaled)</text>
<text class="subtitle" x="1164" y="607" text-anchor="end">Source fetched 2026-07-15 UTC; bookmark/save timestamps are not exposed here.</text>
</svg>